# xmcd
#
# Track frame offsets:
#	150
#	16022
#	31985
#
# Disc length: 646 seconds
#
# Revision: 0
# Processed by: cddbd v1.5.1PL0 Copyright (c) Steve Scherf et al.
# Submitted via: audiograbber 1.81.02
#
DISCID=14028403
DTITLE=Michael Bolton - Dance With Me
DYEAR=1900
DGENRE=
TTITLE0=Dance With Me(Dance With The Devil)
TTITLE1=Dance With Me Radio Edit(Dance With The Devil)
TTITLE2=Dance With Me (From The Movie)
EXTD=
EXTT0=
EXTT1=
EXTT2=
PLAYORDER=
